#N canvas 1469 154 395 167 16;
#N canvas 1254 313 560 651 sound-effects 0;
#X obj 124 65 openda_parameter \$0 hit;
#X obj 144 558 openda_bus;
#X obj 244 435 loadbang;
#X msg 148 100 bang;
#X obj 133 281 hit;
#N canvas 350 465 450 300 counter 0;
#X obj 96 68 inlet bang;
#X obj 96 119 i 0;
#X obj 177 122 + 1;
#X obj 96 175 t f f;
#X obj 96 233 outlet;
#X obj 177 161 mod 4;
#X connect 0 0 1 0;
#X connect 1 0 3 0;
#X connect 2 0 5 0;
#X connect 3 0 4 0;
#X connect 3 1 2 0;
#X connect 5 0 1 1;
#X restore 133 141 pd counter;
#X obj 133 187 route 0 1 2 3;
#X msg 244 486 0.02;
#X obj 153 311 hit;
#X obj 173 341 hit;
#X obj 193 371 hit;
#X connect 0 0 5 0;
#X connect 2 0 7 0;
#X connect 3 0 5 0;
#X connect 4 0 1 0;
#X connect 5 0 6 0;
#X connect 6 0 4 0;
#X connect 6 1 8 0;
#X connect 6 2 9 0;
#X connect 6 3 10 0;
#X connect 7 0 1 1;
#X connect 8 0 1 0;
#X connect 9 0 1 0;
#X connect 10 0 1 0;
#X restore 125 85 pd sound-effects;
#N canvas 164 125 1478 880 bgm 1;
#N canvas 361 414 450 395 timer 0;
#X obj 81 12 inlet start;
#X obj 81 212 i 0;
#X obj 157 214 + 1;
#X obj 101 44 inlet stop;
#X msg 101 139 stop;
#X obj 101 106 t b b;
#X msg 161 139 0;
#X obj 81 328 outlet tempo;
#X obj 81 180 metro 100;
#X obj 81 273 t f f;
#X obj 161 258 mod 256;
#X connect 0 0 8 0;
#X connect 1 0 9 0;
#X connect 2 0 10 0;
#X connect 3 0 5 0;
#X connect 4 0 8 0;
#X connect 5 0 4 0;
#X connect 5 1 6 0;
#X connect 6 0 1 1;
#X connect 8 0 1 0;
#X connect 9 0 7 0;
#X connect 9 1 2 0;
#X connect 10 0 1 1;
#X restore 88 159 pd timer;
#X obj 88 33 openda_parameter \$0 start;
#X obj 165 96 openda_parameter \$0 stop;
#N canvas 544 472 450 420 synth 0;
#X obj 61 46 inlet note;
#X obj 61 89 t b f;
#X obj 108 121 mtof;
#X obj 108 157 osc~;
#X obj 61 229 vline~;
#X obj 61 277 *~;
#X obj 61 320 *~;
#X obj 61 366 outlet~;
#X msg 61 190 0 10 \, 3 20 10 \, 0 20 500;
#X connect 0 0 1 0;
#X connect 1 0 8 0;
#X connect 1 1 2 0;
#X connect 2 0 3 0;
#X connect 3 0 6 1;
#X connect 4 0 5 0;
#X connect 4 0 5 1;
#X connect 5 0 6 0;
#X connect 6 0 7 0;
#X connect 8 0 4 0;
#X restore 88 485 pd synth;
#X obj 88 573 openda_bus;
#X obj 47 104 bng 15 250 50 0 empty empty empty 17 7 0 10 -262144 -1
-1;
#X obj 124 96 bng 15 250 50 0 empty empty empty 17 7 0 10 -262144 -1
-1;
#X obj 88 367 route 0 4;
#X obj 88 319 mod 8;
#X floatatom 26 197 5 0 0 0 - - -, f 5;
#X floatatom 15 378 5 0 0 0 - - -, f 5;
#X obj 471 641 openda_bus;
#X obj 634 65 openda_parameter \$0 evilsquares;
#X obj 471 470 synth-square;
#X msg 471 203 80;
#X msg 506 235 85;
#X msg 542 209 89;
#X obj 491 500 synth-square;
#X obj 511 530 synth-square;
#X obj 88 201 send count;
#X obj 88 271 r count;
#X obj 471 71 r count;
#X obj 471 270 spigot;
#X obj 505 303 spigot;
#X obj 660 240 >= 2;
#X obj 687 209 >= 3;
#X obj 542 338 spigot;
#X obj 202 412 loadbang;
#X obj 608 557 loadbang;
#X msg 604 595 0.05;
#X msg 214 478 0.1;
#X obj 562 376 spigot;
#X obj 634 117 t f f f f f;
#X obj 714 180 >= 4;
#X obj 741 149 >= 5;
#X obj 582 416 spigot;
#X floatatom 378 159 5 0 0 0 - - -, f 5;
#X obj 471 114 mod 8;
#X msg 603 206 87;
#X msg 581 234 91;
#X obj 471 153 route 0 2 4 6 5 7;
#X msg 586 59 4;
#X msg 562 21 5;
#X obj 802 372 openda_seq16;
#X obj 802 253 openda_metro;
#X obj 802 605 synth-square;
#X obj 802 711 openda_bus;
#X obj 826 637 synth-square;
#X msg 1123 199 1 1 \, 5 1 \, 7 1 \, 1;
#X obj 1020 73 loadbang;
#X msg 881 181 bpm 200 \, time 16;
#X obj 856 669 synth-square;
#X obj 807 446 t b b b;
#X obj 851 515 delay 200;
#X obj 809 486 delay 400;
#X msg 88 421 50;
#X msg 147 420 46;
#X msg 853 561 85;
#X msg 915 573 80;
#X msg 803 548 87;
#X connect 0 0 9 0;
#X connect 0 0 19 0;
#X connect 1 0 0 0;
#X connect 2 0 0 1;
#X connect 3 0 4 0;
#X connect 5 0 0 0;
#X connect 6 0 0 1;
#X connect 7 0 55 0;
#X connect 7 1 56 0;
#X connect 8 0 7 0;
#X connect 8 0 10 0;
#X connect 12 0 32 0;
#X connect 13 0 11 0;
#X connect 14 0 22 0;
#X connect 15 0 23 0;
#X connect 16 0 26 0;
#X connect 17 0 11 0;
#X connect 18 0 11 0;
#X connect 20 0 8 0;
#X connect 21 0 37 0;
#X connect 22 0 13 0;
#X connect 23 0 17 0;
#X connect 24 0 23 1;
#X connect 25 0 26 1;
#X connect 26 0 18 0;
#X connect 27 0 30 0;
#X connect 28 0 29 0;
#X connect 29 0 11 1;
#X connect 30 0 4 1;
#X connect 31 0 13 0;
#X connect 32 0 22 1;
#X connect 32 1 24 0;
#X connect 32 2 25 0;
#X connect 32 3 33 0;
#X connect 32 4 34 0;
#X connect 33 0 31 1;
#X connect 34 0 35 1;
#X connect 35 0 17 0;
#X connect 37 0 36 0;
#X connect 37 0 40 0;
#X connect 38 0 35 0;
#X connect 39 0 31 0;
#X connect 40 0 14 0;
#X connect 40 1 15 0;
#X connect 40 2 16 0;
#X connect 40 3 39 0;
#X connect 40 4 38 0;
#X connect 40 5 38 0;
#X connect 41 0 32 0;
#X connect 42 0 32 0;
#X connect 43 0 52 0;
#X connect 44 0 43 0;
#X connect 45 0 46 0;
#X connect 47 0 46 0;
#X connect 48 0 43 1;
#X connect 49 0 48 0;
#X connect 49 0 50 0;
#X connect 50 0 44 0;
#X connect 51 0 46 0;
#X connect 52 0 54 0;
#X connect 52 1 53 0;
#X connect 52 2 58 0;
#X connect 53 0 57 0;
#X connect 54 0 59 0;
#X connect 55 0 3 0;
#X connect 56 0 3 0;
#X connect 57 0 47 0;
#X connect 58 0 51 0;
#X connect 59 0 45 0;
#X restore 169 39 pd bgm;
