#N canvas 1469 187 395 167 16;
#N canvas 1254 322 560 651 sound-effects 1;
#X obj 144 558 openda_bus;
#X obj 244 435 loadbang;
#X obj 133 281 hit;
#N canvas 350 465 450 300 counter 0;
#X obj 96 68 inlet bang;
#X obj 96 119 i 0;
#X obj 177 122 + 1;
#X obj 96 175 t f f;
#X obj 96 233 outlet;
#X obj 177 161 mod 4;
#X connect 0 0 1 0;
#X connect 1 0 3 0;
#X connect 2 0 5 0;
#X connect 3 0 4 0;
#X connect 3 1 2 0;
#X connect 5 0 1 1;
#X restore 133 141 pd counter;
#X obj 133 187 route 0 1 2 3;
#X obj 153 311 hit;
#X obj 173 341 hit;
#X obj 193 371 hit;
#X obj 132 67 openda_parameter \$0 shot;
#X msg 244 486 0.04;
#X connect 1 0 9 0;
#X connect 2 0 0 0;
#X connect 3 0 4 0;
#X connect 4 0 2 0;
#X connect 4 1 5 0;
#X connect 4 2 6 0;
#X connect 4 3 7 0;
#X connect 5 0 0 0;
#X connect 6 0 0 0;
#X connect 7 0 0 0;
#X connect 8 0 3 0;
#X connect 9 0 0 1;
#X restore 125 85 pd sound-effects;
#N canvas 164 158 1629 880 bgm 1;
#X obj 68 109 openda_parameter \$0 start;
#X obj 153 175 openda_parameter \$0 stop;
#N canvas 544 484 450 420 synth 0;
#X obj 61 46 inlet note;
#X obj 61 89 t b f;
#X obj 108 121 mtof;
#X obj 108 157 osc~;
#X obj 61 229 vline~;
#X obj 61 277 *~;
#X obj 61 320 *~;
#X obj 61 366 outlet~;
#X msg 61 190 0 10 \, 3 20 10 \, 0 20 3000;
#X connect 0 0 1 0;
#X connect 1 0 8 0;
#X connect 1 1 2 0;
#X connect 2 0 3 0;
#X connect 3 0 6 1;
#X connect 4 0 5 0;
#X connect 4 0 5 1;
#X connect 5 0 6 0;
#X connect 6 0 7 0;
#X connect 8 0 4 0;
#X restore 81 636 pd synth;
#X obj 81 684 openda_bus;
#X floatatom 8 529 5 0 0 0 - - -, f 5;
#X obj 741 252 openda_parameter \$0 evilsquares;
#X obj 38 343 send count;
#X obj 81 422 r count;
#X obj 195 563 loadbang;
#X obj 494 129 openda_seq16;
#X obj 38 263 openda_metro;
#X obj 494 468 openda_bus;
#X obj 38 11 loadbang;
#X msg 38 45 bpm 200 \, time 16;
#X obj 499 203 t b b b;
#X msg 81 572 50;
#X msg 140 571 46;
#X obj 1087 90 r squares;
#X msg 942 445 \; squares clear \, 0 1 \, 2 1 \, 4 1 \, 6 1 \, 8 1
\, 10 1 \, 12 1 \, 14 1;
#X msg 808 566 \; squares clear \, 0 1 \, 8 1;
#X msg 875 508 \; squares clear \, 0 1 \, 4 1 \, 8 1 \, 12 1;
#X obj 494 85 r count;
#X msg 153 216 0;
#X msg 68 150 1;
#X obj 81 470 mod 16;
#X obj 81 518 route 0 8;
#X msg 545 318 62;
#X msg 607 330 67;
#X msg 495 305 70;
#X msg 741 624 \; squares clear;
#X obj 543 272 delay 200;
#X obj 501 243 delay 400;
#X obj 518 394 synth-square;
#X obj 741 303 moses 1;
#X obj 808 342 moses 2;
#X obj 957 46 loadbang;
#X msg 957 74 1;
#X obj 875 375 moses 4;
#X obj 494 362 synth-square;
#X obj 548 426 synth-square;
#X obj 429 752 openda_bus;
#X obj 429 681 synth-modnoise;
#X obj 403 631 line 0 1;
#X msg 363 521 82;
#X msg 406 514 74;
#X msg 313 543 90;
#X obj 534 547 loadbang;
#X msg 207 629 0.02;
#X msg 605 696 0.05;
#X msg 390 577 \$1 1000;
#X connect 0 0 23 0;
#X connect 1 0 22 0;
#X connect 2 0 3 0;
#X connect 5 0 33 0;
#X connect 7 0 24 0;
#X connect 8 0 47 0;
#X connect 9 0 14 0;
#X connect 10 0 6 0;
#X connect 12 0 13 0;
#X connect 13 0 10 0;
#X connect 14 0 31 0;
#X connect 14 1 30 0;
#X connect 14 2 27 0;
#X connect 15 0 2 0;
#X connect 16 0 2 0;
#X connect 17 0 9 1;
#X connect 21 0 9 0;
#X connect 22 0 10 0;
#X connect 23 0 10 0;
#X connect 24 0 4 0;
#X connect 24 0 25 0;
#X connect 25 0 15 0;
#X connect 25 1 16 0;
#X connect 26 0 32 0;
#X connect 27 0 39 0;
#X connect 28 0 38 0;
#X connect 30 0 26 0;
#X connect 31 0 28 0;
#X connect 32 0 11 0;
#X connect 33 0 29 0;
#X connect 33 1 34 0;
#X connect 34 0 19 0;
#X connect 34 1 37 0;
#X connect 35 0 36 0;
#X connect 36 0 9 1;
#X connect 37 0 20 0;
#X connect 37 1 18 0;
#X connect 38 0 11 0;
#X connect 39 0 11 0;
#X connect 41 0 40 0;
#X connect 42 0 41 0;
#X connect 43 0 49 0;
#X connect 44 0 49 0;
#X connect 45 0 49 0;
#X connect 46 0 48 0;
#X connect 46 0 44 0;
#X connect 47 0 3 1;
#X connect 48 0 40 1;
#X connect 49 0 42 0;
#X restore 169 39 pd bgm;
