#N canvas 606 231 453 600 16;
#X msg 231 238 0.5;
#X obj 68 238 vline~;
#X obj 163 326 vline~;
#X obj 69 459 *~;
#X obj 68 157 t b f b;
#X obj 164 374 *~;
#X obj 69 411 *~;
#X obj 164 418 phasor~;
#X obj 69 508 outlet~;
#X obj 68 35 inlet bang;
#X obj 68 73 random 64;
#X obj 68 101 + 32;
#X msg 68 195 0 5 \, 3 5 5 \, 0 200 50;
#X msg 163 296 \$1 5 \, 5 20 20;
#X connect 0 0 7 1;
#X connect 1 0 6 0;
#X connect 1 0 6 1;
#X connect 2 0 5 0;
#X connect 2 0 5 1;
#X connect 3 0 8 0;
#X connect 4 0 12 0;
#X connect 4 1 13 0;
#X connect 4 2 0 0;
#X connect 5 0 7 0;
#X connect 6 0 3 0;
#X connect 7 0 3 1;
#X connect 9 0 10 0;
#X connect 10 0 11 0;
#X connect 11 0 4 0;
#X connect 12 0 1 0;
#X connect 13 0 2 0;
