#N canvas 3 90 503 518 16;
#X obj 308 267 mtof~;
#X obj 309 229 +~ 90;
#X obj 156 415 *~;
#X obj 52 174 vline~;
#X obj 52 216 *~;
#X obj 309 298 osc~;
#X obj 310 129 mtof;
#X obj 308 332 clip~ -0.1 0.1;
#X obj 310 160 phasor~ 700;
#X obj 310 190 *~ 3;
#X obj 78 19 inlet note;
#X obj 156 461 outlet~;
#X obj 88 59 t b f f;
#X msg 52 141 0 20 \, 3 20 20 \, 0 50 200;
#X obj 311 102 - 36;
#X connect 0 0 5 0;
#X connect 1 0 0 0;
#X connect 2 0 11 0;
#X connect 3 0 4 0;
#X connect 3 0 4 1;
#X connect 4 0 2 0;
#X connect 5 0 7 0;
#X connect 6 0 8 0;
#X connect 7 0 2 1;
#X connect 8 0 9 0;
#X connect 9 0 1 0;
#X connect 10 0 12 0;
#X connect 12 0 13 0;
#X connect 12 1 1 1;
#X connect 12 2 14 0;
#X connect 13 0 3 0;
#X connect 14 0 6 0;
