#N canvas 517 164 485 648 16;
#X obj 52 298 mtof~;
#X obj 53 329 osc~;
#X obj 43 19 inlet note;
#X obj 44 523 outlet~;
#X obj 54 116 noise~;
#X obj 53 260 +~;
#X obj 54 146 *~ 9;
#X obj 172 298 mtof~;
#X obj 173 329 osc~;
#X obj 173 260 +~;
#X obj 280 301 mtof~;
#X obj 281 332 osc~;
#X obj 281 263 +~;
#X obj 150 99 + 5;
#X obj 269 114 + 9;
#X connect 0 0 1 0;
#X connect 1 0 3 0;
#X connect 2 0 5 1;
#X connect 2 0 13 0;
#X connect 2 0 14 0;
#X connect 4 0 6 0;
#X connect 5 0 0 0;
#X connect 6 0 5 0;
#X connect 6 0 9 0;
#X connect 6 0 12 0;
#X connect 7 0 8 0;
#X connect 8 0 3 0;
#X connect 9 0 7 0;
#X connect 10 0 11 0;
#X connect 11 0 3 0;
#X connect 12 0 10 0;
#X connect 13 0 9 1;
#X connect 14 0 12 1;
